HIERARCHY
ROOT pelvis
{
  OFFSET 0 100 0
  CHANNELS 6 Xposition Yposition Zposition Zrotation Xrotation Yrotation
  JOINT pelvis_right_femur
  {
    OFFSET -10.78128 -3.44521 -0.5502486
    CHANNELS 3 Zrotation Xrotation Yrotation
    JOINT right_femur_tibia
    {
      OFFSET -0.8047443 -44.0398 -0.1307829
      CHANNELS 3 Zrotation Xrotation Yrotation
      JOINT right_tibia_foot
      {
        OFFSET 3.006224 -47.83518 -5
        CHANNELS 3 Zrotation Xrotation Yrotation
        End Site
        {
          OFFSET 0 -5 15
        }
      }
    }
  }
  JOINT pelvis_left_femur
  {
    OFFSET 10.78128 -3.44521 -0.5502486
    CHANNELS 3 Zrotation Xrotation Yrotation
    JOINT left_femur_tibia
    {
      OFFSET 0.8047443 -44.0398 -0.1307829
      CHANNELS 3 Zrotation Xrotation Yrotation
      JOINT left_tibia_foot
      {
        OFFSET -4.370144 -48.10324 -4.275266
        CHANNELS 3 Zrotation Xrotation Yrotation
        End Site
        {
          OFFSET 0 -5 15
        }
      }
    }
  }
  JOINT pelvis_spine1
  {
    OFFSET 0 6.468898 -3.129235
    CHANNELS 3 Zrotation Xrotation Yrotation
    JOINT spine1
    {
      OFFSET 0 23.15396 4.99043
      CHANNELS 3 Zrotation Xrotation Yrotation
      JOINT spine2
      {
        OFFSET 0 20.79997 -5.064912
        CHANNELS 3 Zrotation Xrotation Yrotation
        JOINT neck
        {
          OFFSET 0 14.38658 9.616178
          CHANNELS 3 Zrotation Xrotation Yrotation
          End Site
          {
            OFFSET 0 20 0
          }
        }
      }
      JOINT right_manubrium
      {
        OFFSET -5.722621 16.35077 3.967754
        CHANNELS 3 Zrotation Xrotation Yrotation
        JOINT right_clavicle
        {
          OFFSET -13.16364 1.694482 -4.693211
          CHANNELS 3 Zrotation Xrotation Yrotation
          JOINT right_humerus
          {
            OFFSET -28.5034 -0.3100689 -2.792744
            CHANNELS 3 Zrotation Xrotation Yrotation
            JOINT right_radius
            {
              OFFSET -25.15693 0.02248979 -1.271978
              CHANNELS 3 Zrotation Xrotation Yrotation
              End Site
              {
                OFFSET -15 0 0
              }
            }
          }
        }
      }
      JOINT left_manubrium
      {
        OFFSET 5.722621 16.35077 3.967754
        CHANNELS 3 Zrotation Xrotation Yrotation
        JOINT left_clavicle
        {
          OFFSET 13.16364 1.694482 -4.693211
          CHANNELS 3 Zrotation Xrotation Yrotation
          JOINT left_humerus
          {
            OFFSET 29.39168 -1.063119 -2.237045
            CHANNELS 3 Zrotation Xrotation Yrotation
            JOINT left_radius
            {
              OFFSET 24.59957 -0.9528479 0.9047498
              CHANNELS 3 Zrotation Xrotation Yrotation
              End Site
              {
                OFFSET 15 -0 -0
              }
            }
          }
        }
      }
    }
  }
}
MOTION
Frames: 11
Frame Time: 0.0416666666667
0 103.5113 0 1.893748 -0.3125821 -0.04006755 3.149662 -15.5882 12.50502 -0 39.61092 -0 -5.327322 -17.7803 -3.573509 -8.296849 9.315455 -23.70742 -0 6.413487 -0 18.7055 -9.251943 30.9903 -3.997108 -4.143274 6.064804 2.360091 11.3821 -7.453834 2.091442 21.59729 5.287122 2.388609 -25.53754 9.353778 6.428434 -21.71345 11.58466 86.67624 39.65816 -18.19383 -0 0 16.18825 -4.13975 6.747907 4.285627 3.934246 -17.86213 -3.518163 -90.77553 21.84366 20.45717 0 0 -17.20428 16.32111 11.38414 -2.871896
0.2881992 103.4449 1.517916 1.868554 -0.5302689 -0.06413494 3.141581 -16.03846 12.15109 -0 38.91937 -0 -5.581219 -16.81816 -3.406115 -8.222906 9.61776 -23.48532 -0 5.849741 -0 18.36568 -9.79045 30.86245 -3.960632 -3.8271 5.966733 2.304717 11.41225 -7.409408 2.070575 21.6038 5.349394 2.475804 -25.66193 9.319447 6.181477 -21.74763 11.56806 87.01029 39.34625 -18.25799 -0 0 15.86346 -4.217629 6.512603 4.362826 4.004956 -17.99754 -3.685458 -90.54597 21.94712 20.13036 0 0 -17.66487 16.25013 11.23499 -2.903952
0.4919096 101.7052 4.448975 0.273293 -1.964689 0.1255272 3.330851 -26.56324 4.282624 -0 20.4338 -0 -7.292521 -6.461906 -2.167923 -6.446163 15.33368 -17.14818 0 -0.8729387 0 3.702449 -23.73511 22.95041 -2.138039 -0.4215035 4.329197 1.944514 8.993013 -7.306535 1.425722 22.83495 7.035959 2.960631 -26.57502 9.764758 1.019311 -20.02345 9.924311 91.84624 27.80785 -22.67108 -0 0 9.372823 -8.366719 5.263388 4.379018 6.794283 -22.77622 -4.116746 -90.89055 30.03042 17.87464 0 0 -25.1215 8.550777 16.47825 6.212366
0.7091597 100.7626 6.969921 -0.2034152 0.3780886 0.1852792 4.808431 -25.5508 7.142051 -0 25.12223 -0 -6.879169 -9.961266 -2.529179 -6.244013 13.29155 -19.3944 -0 2.140315 -0 4.369355 -22.64784 24.22725 -2.14084 -2.286746 5.025334 2.090931 8.781114 -7.59671 1.573371 22.15199 7.16305 3.107892 -26.39584 10.28511 3.557171 -19.78099 10.31008 89.49905 31.7572 -22.5183 -0 0 12.57277 -7.81081 7.845984 3.242974 7.392248 -22.5551 -1.976275 -94.03524 29.48684 21.71331 0 0 -21.21495 8.508151 19.12427 6.560912
0.9706418 100.2639 9.257101 -0.6595859 1.745314 0.2271657 5.833168 -24.79268 8.722437 -0 29.45501 -0 -6.603892 -11.62948 -2.780537 -5.993346 11.46607 -20.41621 -0 4.975176 -0 4.802224 -21.8875 24.53894 -2.273023 -3.488508 5.134914 2.422888 8.801084 -8.005242 1.565206 21.48965 7.218429 3.162464 -26.24236 10.39399 5.291277 -19.45622 10.85154 87.4091 33.56397 -21.63367 -0 0 14.96225 -7.994953 9.516972 3.151374 7.947715 -22.3194 -0.03164602 -95.40455 27.33448 23.22537 0 0 -17.24174 9.236594 20.30166 5.10308
1.182741 99.33454 12.00895 -0.8679357 1.817814 0.3556748 6.02025 -27.72868 7.456873 -0 23.72076 -0 -7.31714 -8.441458 -2.330106 -5.603449 12.77571 -19.01575 -0 4.703367 -0 2.778164 -24.0256 22.69844 -2.198028 -2.658489 4.737911 2.674503 8.743094 -8.224345 1.549015 21.14154 7.256473 3.358047 -26.81305 10.16551 4.365744 -19.12537 10.75589 88.36351 31.91314 -22.41358 -0 0 13.49527 -8.339918 8.604638 3.45624 8.376209 -22.99424 -0.1019528 -94.09253 27.01345 21.32209 0 0 -19.02955 9.310572 19.42902 4.496103
1.36746 98.22294 15.11986 -1.053487 2.052641 0.5687506 6.264649 -29.62285 6.793992 -0 20.15468 -0 -7.727608 -6.436079 -2.057254 -5.334834 13.48833 -18.09315 -0 5.1823 -0 1.579303 -25.16085 21.36689 -2.183979 -2.243611 4.447272 2.931703 8.762268 -8.457414 1.541822 20.7427 7.274245 3.496741 -27.20593 9.99372 3.91407 -18.84294 10.7789 88.7617 30.99082 -22.82405 -0 0 12.72092 -8.610434 8.19182 3.734733 8.667852 -23.3671 0.03305361 -93.14845 26.29435 19.95107 0 0 -19.92456 9.599274 18.63123 3.664259
1.565549 97.07629 18.43593 -1.229753 2.400566 0.8498108 6.585378 -30.68053 6.494631 -0 18.70584 -0 -7.853263 -5.342247 -1.819017 -5.147763 13.5168 -17.62727 -0 6.071439 -0 1.145919 -25.64351 20.48984 -2.296079 -2.128744 4.194242 3.204452 8.847616 -8.716913 1.480543 20.22002 7.365925 3.677004 -27.42171 9.830945 4.011636 -18.58886 10.99322 88.41436 30.8358 -22.61362 -0 0 12.81377 -8.993076 8.322241 4.095908 9.015751 -23.47289 0.5256695 -92.46402 24.72127 18.86916 0 0 -19.68405 10.24648 17.83911 2.076892
1.776744 95.83971 22.03007 -1.338067 2.574941 1.197346 6.729322 -31.73694 5.823274 -0 16.71313 -0 -7.937908 -4.074006 -1.504148 -5.017077 13.80503 -16.95039 -0 6.961489 -0 0.7152398 -25.99415 19.41624 -2.393857 -1.898246 3.883269 3.444254 8.924297 -8.935913 1.39182 19.74058 7.486842 3.875705 -27.57311 9.626533 3.908843 -18.30825 11.15193 88.24301 30.52356 -22.43447 -0 0 12.6253 -9.558604 8.387133 4.516048 9.295374 -23.56803 0.7500216 -91.4677 23.01867 17.37111 0 0 -19.9422 10.94044 16.72581 0.3063846
2.007426 94.55455 25.96679 -1.4575 2.694093 1.617827 6.854879 -32.67709 5.044567 -0 14.79827 -0 -7.998121 -2.814646 -1.171678 -4.91293 14.22354 -16.17939 -0 8.209567 -0 0.2505255 -26.01969 18.19368 -2.394881 -1.642321 3.549374 3.620844 8.982447 -9.11307 1.287624 19.27768 7.657816 4.117216 -27.63991 9.419245 3.759557 -18.00104 11.25165 88.14914 30.29997 -22.29678 -0 0 12.34129 -10.2185 8.547654 4.887683 9.489475 -23.63264 0.7625358 -90.45538 21.37123 15.84796 0 0 -20.46403 11.53539 15.47651 -1.334847
2.27118 93.3184 30.29487 -1.636446 2.806759 2.105494 7.059507 -33.35854 4.288574 -0 13.51493 -0 -8.036944 -1.732602 -0.8385956 -4.819957 14.6376 -15.37668 -0 10.13473 -0 -0.2122678 -25.49606 16.83528 -2.247578 -1.404491 3.199352 3.710123 9.009034 -9.240253 1.154354 18.81401 7.907906 4.43465 -27.57016 9.209997 3.702307 -17.65316 11.29752 87.99602 30.38388 -22.1127 -0 0 12.12942 -10.95659 8.923921 5.163308 9.58979 -23.62666 0.5962584 -89.56575 19.76387 14.48749 0 0 -20.97173 12.01301 14.16516 -2.807364
